<svg xmlns="http://www.w3.org/2000/svg" width="260" height="68" viewBox="0 0 260 68" version="1.1"><title>phpSmug-logo</title><desc>Created with Sketch.</desc><g stroke="none" stroke-width="1" fill="none" fill-rule="evenodd"><g transform="translate(-4.000000, -13.000000)"><text font-family="OfficinaSansWinCTT" font-size="72.2" font-weight="bold" letter-spacing="-5.1" fill="#000000"><tspan x="229" y="65.2">g</tspan></text><text font-family="OfficinaSansWinCTT" font-size="72.2" font-weight="bold" letter-spacing="-5.1" fill="#000000"><tspan x="0" y="65">phpSm</tspan></text><path d="M196.9 25.6C201.5 25.5 203.7 22.8 203.4 20.4 203.2 18.3 201.2 16.5 197.4 16.4 194.3 16.4 192.3 18.7 192 21 191.7 23.3 193.1 25.6 196.9 25.6M219.9 25C224.3 24.8 226.2 22.6 226.2 20.4 226.2 17.9 223.9 15.4 219.9 15.8 216.7 16 214.9 18.2 214.6 20.4 214.3 22.8 215.9 25.2 219.9 25M202.9 60.4C187.1 60.4 189.3 41.6 191.9 41.5 210.3 40.7 215 40 221.6 40 228.3 40 215.6 60.4 202.9 60.4L202.9 60.4 202.9 60.4ZM222.7 34.8C211.7 35.9 211.2 36 191 36.4 182.5 36.5 184.3 65.6 202.5 65.6 219.8 65.6 240.6 33 222.7 34.8L222.7 34.8 222.7 34.8Z" fill="#75B543"/></g></g></svg>