<?xml version="1.0" encoding="UTF-8" standalone="no"?>
<svg width="128px" height="128px" viewBox="0 0 128 128" version="1.1" xmlns="http://www.w3.org/2000/svg" xmlns:xlink="http://www.w3.org/1999/xlink" xmlns:sketch="http://www.bohemiancoding.com/sketch/ns">
    <title>favicon.png</title>
    <description>Created with Sketch (http://www.bohemiancoding.com/sketch)</description>
    <defs></defs>
    <g id="Page-1" stroke="none" stroke-width="1" fill="none" fill-rule="evenodd" sketch:type="MSPage">
        <g id="grey-camera-icon" sketch:type="MSLayerGroup" transform="translate(0.000000, 4.000000)">
            <g id="Layer-1" sketch:type="MSShapeGroup">
                <g id="layer1">
                    <g id="svg_1">
                        <path d="M13.141475,0.190985498 C5.82904104,0.190985498 -0.145255576,6.13825476 -0.145255576,13.4506888 L-0.145255576,115.216495 C-0.145255576,122.528941 5.82904104,128.462676 13.141475,128.462676 L114.880272,128.462676 C122.192694,128.462676 128.126429,122.528941 128.126429,115.216495 L128.126429,13.4506888 C128.126429,6.13825476 122.192694,0.190985498 114.880272,0.190985498 L13.141475,0.190985498 L13.141475,0.190985498 Z" id="path2778"></path>
                        <path d="M74.8419419,37.4513997 C84.6326746,37.4513997 93.1293897,42.7832931 97.8220795,50.6408182 L125.479324,50.6719855 L125.479324,35.8455999 C125.479324,30.3266207 120.989289,25.8521975 115.485921,25.8521975 L12.4182864,25.8521975 C6.89930719,25.8521975 2.45606536,30.3266207 2.45606536,35.8455999 L2.48724625,50.5472755 L51.8462073,50.5784564 C56.5700921,42.7521122 65.0356258,37.4513997 74.8419424,37.4513997" id="path2780" fill="#3F3F3F"></path>
                        <path d="M28.3048254,21.1439102 L19.1377124,21.1439102 L18.0775725,24.449067 L29.0687525,24.449067 L28.3048254,21.1439102 L28.3048254,21.1439102 Z" id="path2782" fill="#3F3F3F"></path>
                        <path d="M110.980317,19.3822051 L98.7730924,19.3822051 L96.6060348,24.4802479 L112.960289,24.4802479 L110.980317,19.3822051 L110.980317,19.3822051 Z" id="path2784" fill="#3F3F3F"></path>
                        <path d="M69.0735147,22.7185432 L58.5656469,22.7185432 L58.5656469,17.6360978 L69.0735147,17.6360978 L69.0735147,22.7185432 L69.0735147,22.7185432 Z M78.7083425,15.5937642 L49.0399597,15.5937642 L42.9285559,24.5426101 L84.3052673,24.5426101 L78.7083425,15.5937642 L78.7083425,15.5937642 Z" id="path2786" fill="#3F3F3F"></path>
                        <path d="M99.256391,53.2911604 C100.784246,56.6586794 101.68848,60.3691751 101.68848,64.3135213 C101.68848,79.1399069 89.6683416,91.1756569 74.8419419,91.1756569 C59.9999448,91.1756569 47.9798203,79.1399069 47.9798203,64.3135213 C47.9798203,60.3691751 48.8684578,56.6586794 50.4119094,53.275577 L2.45606536,53.275577 L2.45606536,93.7480675 C2.45606536,99.2358658 6.89930719,103.710275 12.4182864,103.710275 L115.485921,103.710275 C120.989289,103.710275 125.479324,99.2358658 125.479324,93.7480675 L125.510491,53.2911604 L99.2563915,53.2911604 L99.256391,53.2911604 Z" id="path2788" fill="#3F3F3F"></path>
                        <path d="M89.4812553,55.4893994 C89.060319,54.7410698 88.5302561,54.0395045 87.9534148,53.3691201 C84.8197464,49.5962622 80.1270705,47.1173948 74.8419419,47.1173948 C69.5412435,47.1173948 64.8485536,49.5806648 61.7148852,53.3379392 C61.1380575,54.0239071 60.607967,54.7254864 60.1558637,55.4893994 C58.5812448,58.0774074 57.630218,61.0707268 57.630218,64.3135218 C57.630218,73.7924582 65.3318522,81.4940648 74.8419424,81.4940648 C84.3052678,81.4940648 92.0068885,73.7924582 92.0068885,64.3135218 C92.0068885,61.0707268 91.0714726,58.0774074 89.4812563,55.4893994" id="path2790" fill="#669900"></path>
                    </g>
                </g>
            </g>
        </g>
    </g>
</svg>